
<global>
amp_veltrack=0
ampeg_attack=0.01
ampeg_release=0.45
</global>

<group>
group_label=PP
lpc_hicc1=42
lpc_locc1=0

<region>
hivel=127
key=A#3
loop_end=251653
loop_mode=loop_continuous
loop_start=55844
loop_xfade=23726
lovel=0
lpc=9IOuQsD1PcP9iQVDqc8/woNWnUELpWQ/n3F1wVKHTkH4epFBePSOwT83PsGg+LJBvuXZwC9RgsERhRNB1vfRQIusqcAy2tI/5TLrP3g6w8DR+J9AYYJwQFsSUMGAFgRB
lpc_rms=-31.83
sample=Clarinet_sustain_PP_A#3.opus
</region>

<region>
hivel=127
key=A#4
loop_end=272011
loop_mode=loop_continuous
loop_start=60362
loop_xfade=25646
lovel=0
lpc=036EQ3ooMMRlgiZEZwl3w6CyDELMFIzByHGCQcm7yMFExl9C48aQwgheq0HmkBBChx0Uwv0Qi8HF3zxCdv3AQQTCe8IynBfBfVpPQm9xk8EixRm/cbE3wDBuS0BAyLo/
lpc_rms=-19.28
sample=Clarinet_sustain_PP_A#4.opus
</region>

<region>
hivel=127
key=A#5
loop_end=258109
loop_mode=loop_continuous
loop_start=57277
loop_xfade=24335
lovel=0
lpc=NsgVQ1RPjsOWEoBDB8XNwiGSG8DQjBlCHPoNwltF8UH4LPdAv640ws4XVULUChrA2hv4wWxIIkFLryFCNr3rwTu0JcGSz+RBvBMvQBmfmsFiNIVBGnEqwZ7pKELxyzjC
lpc_rms=-24.71
sample=Clarinet_sustain_PP_A#5.opus
</region>

<region>
hivel=127
key=A3
loop_end=273518
loop_mode=loop_continuous
loop_start=60696
loop_xfade=25788
lovel=0
lpc=11nCQudvZcM8Vy9DjMFUwgK2GkEoBGJAPYQ+wHBbJ0D0Bk5B5NaHwYi1OcFkxqFBtTtuv1BXosEwPVpBziiOQJL0z8DrQbo/yj/VQFqu7b/Qcc7AQ8eMQF5e08B3cqhA
lpc_rms=-29.35
sample=Clarinet_sustain_PP_A3.opus
</region>

<region>
hivel=127
key=A4
loop_end=269470
loop_mode=loop_continuous
loop_start=59798
loop_xfade=25406
lovel=0
lpc=OvxKQ2cvCcTyX/1DaY0fw1TKPEGTgPTBRD/0Qd7BxMGb9lhC0j+Ows42pUFYE/dBd4zswbOcKsGQ4ZxB5CnyQRWJFcJ9NgbBhwvhQTBUA8HOMYPACO48wbP0WUEBHKC+
lpc_rms=-21.26
sample=Clarinet_sustain_PP_A4.opus
</region>

<region>
hivel=127
key=A5
loop_end=251182
loop_mode=loop_continuous
loop_start=55740
loop_xfade=23682
lovel=0
lpc=MqEpQxfam8P0/WlD3HSUwo36uEF14l5Bla8iwmKItkFeiw1CpQIdwkPGEkGSJepBXWewwZ/+tEByhk1Bsq6HPz6u3MBswk9BIS07QEEtocCR77+/BZEwQYTVBEIn4g7C
lpc_rms=-25.86
sample=Clarinet_sustain_PP_A5.opus
</region>

<region>
hivel=127
key=B3
loop_end=250612
loop_mode=loop_continuous
loop_start=55613
loop_xfade=23628
lovel=0
lpc=d3uLQrQJIsORxwJDh6lnwo/Xi0H4lSRByHh6wWTvO0HZwPZAh2xEwQCkqMCiqlpBb8wHwbZEEMFE9kBBqgxRwDQfGcCk3SFAwNCYQEuzwsBiVbdA8CscPwl2RsG6dgJB
lpc_rms=-32.25
sample=Clarinet_sustain_PP_B3.opus
</region>

<region>
hivel=127
key=B4
loop_end=268602
loop_mode=loop_continuous
loop_start=59605
loop_xfade=25324
lovel=0
lpc=rtuLQ/qIJsQdHf5D5XcHw14cXEK70I7Bg8m6wOTOB8LKO0FCPc9OwsFhpT+x4xNCZQ9/wUHhmMFalkhCUygpQaZrX8LkXSTA3WUUQotj3MF6iRXAZkQNQgJhtsF1haxA
lpc_rms=-20.95
sample=Clarinet_sustain_PP_B4.opus
</region>

<region>
hivel=127
key=B5
loop_end=272268
loop_mode=loop_continuous
loop_start=60419
loop_xfade=25670
lovel=0
lpc=+3iEQ2n6E8RWeCNECIzNw1zuDUOvGZtCuiPPwgtKpMA4thVDz6f9wi8MS0LxUphBXwYZwHbs38ALS7BBbG8mQtWEV8Jiq0dBUY98QvmpMMGPZKDCXx0/QyOxScM6d7FC
lpc_rms=-16.24
sample=Clarinet_sustain_PP_B5.opus
</region>

<region>
hivel=127
key=C#4
loop_end=251765
loop_mode=loop_continuous
loop_start=55869
loop_xfade=23737
lovel=0
lpc=JEjvQjXfgMNS0DhDwy6fwjE89EG3q5pB4OiFwYeIUj78Gk1Bn7k9wTbE8j7BZR5BnmO1wZgt7MAdlbRBn5WyP5LvK8FAekdB749OQFUuRsFduFG/dSBHQWzBycFhvIdB
lpc_rms=-28.63
sample=Clarinet_sustain_PP_C#4.opus
</region>

<region>
hivel=127
key=C#5
loop_end=256753
loop_mode=loop_continuous
loop_start=56976
loop_xfade=24207
lovel=0
lpc=f2VmQp4VFMOTvwNDUoYnwrEL1kBZUffAgba0QI5ONMHhzKNBOQ2BwT0BwUDLlSNAwY4dwfvw/D4PBOBAuAwRQe2PT8H95EW/agP8QD15rsDYkEM+Le7oQEIPScEI1fNA
lpc_rms=-33.12
sample=Clarinet_sustain_PP_C#5.opus
</region>

<region>
hivel=127
key=C#6
loop_end=273584
loop_mode=loop_continuous
loop_start=60711
loop_xfade=25794
lovel=0
lpc=dp4qQ6Zpm8OHppFD1Y0Nw7CwWEKslIdAMTOYQdnZ1sETsXVC7UQPwgsNDULm+33B1803QjKcCsKuFSVCOZKvwKBTh0E+ymHBEtVbQiy9TMKIV5FCpkr/wumL40L09+TB
lpc_rms=-18.89
sample=Clarinet_sustain_PP_C#6.opus
</region>

<region>
hivel=127
key=C4
loop_end=256562
loop_mode=loop_continuous
loop_start=56934
loop_xfade=24189
lovel=0
lpc=3VPvQiM7isPQckxDtPyNwtyEyUHczhRBThIkwTgDe0C4IIZBEHHMwcBJUcCRsIxBvb1DweyWi8F6o45BUlZ7QAiCC8GyETJBaPElQRDWO8HemrTAcyJ3QYCBCcKdU7BB
lpc_rms=-28.39
sample=Clarinet_sustain_PP_C4.opus
</region>

<region>
hivel=127
key=C5
loop_end=265828
loop_mode=loop_continuous
loop_start=58990
loop_xfade=25063
lovel=0
lpc=GlHYQt+ngsPGvmFDO5OywhQgr0EoBppAsFCqwEHJCsEYjcJBzG3YwYH/TUDzhZpBTVs+wekrYsGzvylBEcWMQXn2dMFcZsfAxsVdQQFKg8DB4AvAUq1/QaSsBsJm5KNB
lpc_rms=-28.27
sample=Clarinet_sustain_PP_C5.opus
</region>

<region>
hivel=127
key=C6
loop_end=264274
loop_mode=loop_continuous
loop_start=58645
loop_xfade=24916
lovel=0
lpc=iioxQ5EEqMM/Io5DY/vewlIsEUIJZoZAy556wTZFK0J18CtBTC23wVpEGEAvoXhCCWAFwnNPrMA4gS5CSzJ2wHGpvkBzs4TB2+JSQgdoMMFV5Eg/wTsSQckeTMLEfWNC
lpc_rms=-21.62
sample=Clarinet_sustain_PP_C6.opus
</region>

<region>
hivel=127
key=D#3
loop_end=255483
loop_mode=loop_continuous
loop_start=56694
loop_xfade=24087
lovel=0
lpc=e09EQoweuMJ0kSVClYWZPsjvHUH7jFHBS+kjwL+MIkD2dypBp160v5BNV8BAb9a/0P0GPiyx8r+mCmRAHKjZvhr4er+659A+GZxgPyGPxz6cGb6+ST22vybp0z6UPfK9
lpc_rms=-38.04
sample=Clarinet_sustain_PP_D#3.opus
</region>

<region>
hivel=127
key=D#4
loop_end=260845
loop_mode=loop_continuous
loop_start=57884
loop_xfade=24593
lovel=0
lpc=yV96Qvel9sIRXZxCbXSrwd1JgECvxAhAK+7QwN1rUkAQ3hBBrMTewOzqtD/6EKk/I7T1vzg3CMEZvrtAFFLCQLq53cBCZT9AOV08QFTGosD3TGvABNVeQerTgcFVjgxB
lpc_rms=-35.13
sample=Clarinet_sustain_PP_D#4.opus
</region>

<region>
hivel=127
key=D#5
loop_end=267679
loop_mode=loop_continuous
loop_start=59400
loop_xfade=25237
lovel=0
lpc=tOYzQ0PzvMPfgZxDlKUSwxFRkUIBjjvCjZz+QdeaCT9imBlBm90OwoYjmkG3qTu/VOLvQcxuUsKN+HW9uDZgQmI76MGkCBBBwMkMQZk9ocGK7mVBpg0FQlgAq8K162hC
lpc_rms=-23.35
offset=9222
sample=Clarinet_sustain_PP_D#5.opus
</region>

<region>
hikey=D3
hivel=127
lokey=C#3
loop_end=269370
loop_mode=loop_continuous
loop_start=59776
loop_xfade=25397
lovel=0
lpc=Xv6LQlxs7cKGUB5CMhifQKOwHkGOmS/BUfeDwFryJkBg7xdBbNTOPyZ+lsCj6Q2+uIeuPxVc6b4emSVA7ZmlP9GoQMAxnYi/peHbP4GZQj/ekAvAeSxxwBKEkb8OZJJA
lpc_rms=-37.76
pitch_keycenter=D3
sample=Clarinet_sustain_PP_D3.opus
</region>

<region>
hivel=127
key=D4
loop_end=264656
loop_mode=loop_continuous
loop_start=58730
loop_xfade=24952
lovel=0
lpc=CG7yQg6FgMOXmB1DuP0Hwu9qvkFsdc3A21aSwLTnjEDGOoVAfb9GwSqNS8D1UIFBasa8wKIYW8HVZRVB6jXkQDcUt8BSz8G/gm/hQPYGYsD3/WzAWnjZQHp7psHAcIZB
lpc_rms=-29.31
sample=Clarinet_sustain_PP_D4.opus
</region>

<region>
hivel=127
key=D5
loop_end=272053
loop_mode=loop_continuous
loop_start=60371
loop_xfade=25650
lovel=0
lpc=u2KeQpABHsMPZ8VCWwmiwWQNIkFtiJXAI64Nv9USkj6psU5B0NpawcGzvMDGhBJBIFruvu/88cBBc+NAlbUaQRVc4MCxVK7A3zDPQFA+ST/kgm+/LfH+P7qqVMGxXVRB
lpc_rms=-34.27
sample=Clarinet_sustain_PP_D5.opus
</region>

<region>
hikey=G7
hivel=127
lokey=D6
loop_end=250203
loop_mode=loop_continuous
loop_start=55522
loop_xfade=23590
lovel=0
lpc=CVHCQ5kvMsTRWghEhVZdw36I6kL+8BbCy96RwSa5KEL3glZCpgibwqYdbkLPYDFCsduXwpZHhUJ9kfHAA5AtQs3s8MGT9cpBaNlWQX+8VMKdAWfC91joQjTkR7+G1JXB
lpc_rms=-17.63
pitch_keycenter=D6
sample=Clarinet_sustain_PP_D6.opus
</region>

<region>
hivel=127
key=E3
loop_end=265873
loop_mode=loop_continuous
loop_start=59000
loop_xfade=25067
lovel=0
lpc=UQdtQqzL0cKx0hhCKlvmv13tW0HlEo/ACEt0Pw0xBD5GHuFACKnxv2+YQcAL3Ou/OcvCv64ekcBl5UtAIn00QGs4bb+9MpW/PjJYQCthjr+/JuC/y0DDP0d2ikCbkovA
lpc_rms=-39.06
sample=Clarinet_sustain_PP_E3.opus
</region>

<region>
hivel=127
key=E4
loop_end=271082
loop_mode=loop_continuous
loop_start=60156
loop_xfade=25558
lovel=0
lpc=3A8sQ/4qssOHX2BDjaqPwtNQBUJSSqlBHVKRwemKvz/oRqtB92yuwRHnHsEGcBO9Ab88PyvSmsGsD6FBuA+nQam5tcClrxDBidorQdAEk8GeTXPAsn7JQcDyGcIrIM5B
lpc_rms=-26.52
sample=Clarinet_sustain_PP_E4.opus
</region>

<region>
hivel=127
key=E5
loop_end=279757
loop_mode=loop_continuous
loop_start=62081
loop_xfade=26376
lovel=0
lpc=USpuQ9EB3MMVKItDzzimwt+ABUJxq/HAs4TQQUXm9cBlkMRBmKgowr1SWUDRYKRBtr//wKa2YcGnFIxBLRjEQXT0WMHeqRdBDP9JQakmsMG2ImbBjOmVQUH6b8FaGwZC
lpc_rms=-24.24
offset=15846
sample=Clarinet_sustain_PP_E5.opus
</region>

<region>
hivel=127
key=F#3
loop_end=266577
loop_mode=loop_continuous
loop_start=59156
loop_xfade=25133
lovel=0
lpc=9xQaQ9lSkcNZNA1DnITAwRmFiEETyyXBEFRBQREJLcD/BGpBg8XCP+SBJsCRkUDAIEwbwbKiQMGs3flAt19tQUPrYkBRMBrBVWPiP8473cBp2kW/s+/QP4Oqi8AkPelA
lpc_rms=-29.29
offset=4172
sample=Clarinet_sustain_PP_F#3.opus
</region>

<region>
hivel=127
key=F#4
loop_end=267684
loop_mode=loop_continuous
loop_start=59402
loop_xfade=25238
lovel=0
lpc=M0AOQycTgcNAjwRDoPkpwia1FUL9tiZAh3ouwWtyokC8SWhBRR98wdbuB8CAXCvBmWlVQAOr7sALvl1BW3wcQT3x0r/g7tzARpTRQCjlNMBn0o3BCaBtQV9ep8HJprxB
lpc_rms=-28.66
sample=Clarinet_sustain_PP_F#4.opus
</region>

<region>
hivel=127
key=F#5
loop_end=272878
loop_mode=loop_continuous
loop_start=60554
loop_xfade=25727
lovel=0
lpc=HsKBQ/hhzsPlxzlDp8mcwEAjt0EFrp9A8VNzwbe1ZEHEQNRBbwDewUNdGcEaRuVBn4IxwbOOBMBNvNxBFT+HQTzoo8EdAsQ/0srHQJavBMFOjAFBbhNpQbixF0ED8Y9A
lpc_rms=-23.75
sample=Clarinet_sustain_PP_F#5.opus
</region>

<region>
hivel=127
key=F3
loop_end=258837
loop_mode=loop_continuous
loop_start=57438
loop_xfade=24404
lovel=0
lpc=wTthQsKIzML+mT1C11gJwVUg+UB7k83ApctUQMdEnEBuovRAAYHmwFp5GMBkm6I/T6ErwEm8tcAI5ZxAoiheQA4syL9fmJE/jNOuvuOsIz00u4G+He72vmZYpcAOKadA
lpc_rms=-37.54
sample=Clarinet_sustain_PP_F3.opus
</region>

<region>
hivel=127
key=F4
loop_end=263263
loop_mode=loop_continuous
loop_start=58421
loop_xfade=24821
lovel=0
lpc=+dESQ+Ddj8PO9BpDguUkwlVvLEL783pABC+CwaxGMUAMYX9BTx6dwbZo/8DlkO1AyMX8wBhvJMEYRXtBrPuQQd/BFsHMtLLAsTkSQZ/jO8AEeHHBYV35QJjLhcE9iKNB
lpc_rms=-28.26
sample=Clarinet_sustain_PP_F4.opus
</region>

<region>
hivel=127
key=F5
loop_end=271798
loop_mode=loop_continuous
loop_start=60315
loop_xfade=25626
lovel=0
lpc=131hQwPm0cOQG51DddsRww/cOkLGn6lBP7OmQO55uD99+KFBGl1Kwrn7J0HErxFCbTCFwTzPlcGOAdpBLOGNQcaQ6sDlMxRB/z64P05pwsE1jhvBBz81Qp3yxsFUHtdB
lpc_rms=-24.18
offset=3268
sample=Clarinet_sustain_PP_F5.opus
</region>

<region>
hivel=127
key=G#3
loop_end=261199
loop_mode=loop_continuous
loop_start=57962
loop_xfade=24626
lovel=0
lpc=RkgHQysHlcP6SDND/DITwtyzFkL9HqHA7lwxwT8ltD9+2L9BYqGlwVhKk8Gb0rxA+juTwAOVKcFQC7NByPR+QS6D4sCT+JDAXy4+QLSXLsGPW6DAZzFPQXalV8H8iA9B
lpc_rms=-29.03
sample=Clarinet_sustain_PP_G#3.opus
</region>

<region>
hivel=127
key=G#4
loop_end=270480
loop_mode=loop_continuous
loop_start=60022
loop_xfade=25501
lovel=0
lpc=2BZ5Q4UU5sMh+WFD7x0EwikVT0InBqbBOFNYwW35zkCTffFB5p+SwND4scHTtoHBdKtsQIs8BEDvZqy/Wg9hQR4Jcz9OK4S/Ewo5QbhMIcFcJE/BTcM7QQUWjsFGnrdB
lpc_rms=-24.84
sample=Clarinet_sustain_PP_G#4.opus
</region>

<region>
hivel=127
key=G#5
loop_end=253443
loop_mode=loop_continuous
loop_start=56241
loop_xfade=23895
lovel=0
lpc=YobyQuK5lcPC+I5DJX36wkCAhUHqOUhBrzghQDSfZsGE44NBIF3cwSpPFkEO66lBW1o6wXYCN8HWzO1BQ/eWwTz7oMH9NddB3ukVwRhzfL2xnwpBjiCaQB/NT8E5LQC/
lpc_rms=-25.42
sample=Clarinet_sustain_PP_G#5.opus
</region>

<region>
hivel=127
key=G3
loop_end=256830
loop_mode=loop_continuous
loop_start=56993
loop_xfade=24214
lovel=0
lpc=VnUDQ2tjVsPFCJlCyom7wOnXVEEBHzHBFk60P78CaUBHfZJB0JkvPpH3V8Ffptc/ET6sQHHYlMGYqdFAWzwAQTy5Vz+4/oPAtTG4QCB9RsH+dxpAVjUNQIVFIT9om0pA
lpc_rms=-29.00
sample=Clarinet_sustain_PP_G3.opus
</region>

<region>
hivel=127
key=G4
loop_end=272062
loop_mode=loop_continuous
loop_start=60373
loop_xfade=25650
lovel=0
lpc=/HpMQ7X2xsOmRVpDBsRlwVxc7UHAJNjB+ACbwV54oEBZv5hBj9QqwJCD08BMPLvAnYWXP65bcL+UH/dArTeHQFKxd7/V0m7BS+1BQYbclkAGigLBpYybvqmW+MEloh9C
lpc_rms=-26.22
sample=Clarinet_sustain_PP_G4.opus
</region>

<region>
hivel=127
key=G5
loop_end=260617
loop_mode=loop_continuous
loop_start=57833
loop_xfade=24571
lovel=0
lpc=VnqHQ+hyCcT2YuJDMywkwwv8fUL9C7PB2rvYwP4Tn0CDQWJCbTBuwgV22UGH5q5BBm66wfOkyUAuSRNCeYPJQOOdEsI8QoZBFYPLQQrBR8EytnZBr/cqweydm0F/wzBB
lpc_rms=-21.24
sample=Clarinet_sustain_PP_G5.opus
</region>
</group>

<group>
group_label=MF
lpc_hicc1=84
lpc_locc1=43

<region>
hivel=127
key=A#3
loop_end=262021
loop_mode=loop_continuous
loop_start=58145
loop_xfade=24704
lovel=0
lpc=rolZQuKZHsMmPSRDBSaGwn25HEGQBoxAysW4wabMukEvvDLABwWrwNtrtsClgpRBkGi6wdbJL0HOC59AB7wuwJEWi8CA+MI/RfIvQD2uJD8R7r3AoTAdQIYvLEDNnL6/
lpc_rms=-25.59
sample=Clarinet_sustain_MF_A#3.opus
</region>

<region>
hivel=127
key=A#4
loop_end=272727
loop_mode=loop_continuous
loop_start=60521
loop_xfade=25713
lovel=0
lpc=YonWQgh1p8Ny5cZDbF5Nwx7vYUKBsJXC/V70QlCyJcPubU5Do7Ezw3cg6EJ54WzCpn44wUodKkLTLbQ8Ea58wYPmyMEUwANCccGVQK9ZkMHPIEXBjDwkQkrS+cFayQlB
lpc_rms=-15.13
sample=Clarinet_sustain_MF_A#4.opus
</region>

<region>
hivel=127
key=A#5
loop_end=273535
loop_mode=loop_continuous
loop_start=60700
loop_xfade=25789
lovel=0
lpc=IjyjQoXWBMOWEv9C0pVnwmRcZ0HM7rVBfbwFwXzoX8G4tkFCeoMFwjPjskF1D5c/hMDOQIX5rMAHr7tBO3l0wd+Kk0G79qtAOsaMwNIPKsBlrClC2t5Bwrq1U0L8d7XB
lpc_rms=-22.06
sample=Clarinet_sustain_MF_A#5.opus
</region>

<region>
hivel=127
key=A3
loop_end=262585
loop_mode=loop_continuous
loop_start=58270
loop_xfade=24757
lovel=0
lpc=TEWRQnFkYMMPC4JDeBoQw53EMELv2bdAy/rhwUwGYEGEj2FBVK7kwQUwhkEtKqpAmN9wwQOkBkCLD7BBr/6vwdFPAb/5deNA89DBQKO+F8ErXRLA9wEOQVzDnMC8p1M/
lpc_rms=-24.62
sample=Clarinet_sustain_MF_A3.opus
</region>

<region>
hivel=127
key=A4
loop_end=274491
loop_mode=loop_continuous
loop_start=60912
loop_xfade=25879
lovel=0
lpc=xArYQsDdqMMskrdDfIvowmKk0MEu5VfCzaL+QrwPFMOJXCVDTGsFw7dUjEIyPMHBgPx1wdzfg0FcRa9BZxu/wcD9EcHR2oNBjuhBQSu64sFYhZxA5j2MQRAVR8G0Mj1A
lpc_rms=-15.07
sample=Clarinet_sustain_MF_A4.opus
</region>

<region>
hivel=127
key=A5
loop_end=252813
loop_mode=loop_continuous
loop_start=56102
loop_xfade=23836
lovel=0
lpc=KPfbQkzPFcO9hARDG2dNwjyo9UH7T7RBDE6ewZcqtUEsF39BOOetQO5ICcAsBgNCN04EwfnRaUGMe89AWveBQZQfB0FslpC/kvHaQSwZoT+JVUzACq3ZQdSJkz+D+K5B
lpc_rms=-20.47
sample=Clarinet_sustain_MF_A5.opus
</region>

<region>
hivel=127
key=B3
loop_end=253640
loop_mode=loop_continuous
loop_start=56285
loop_xfade=23914
lovel=0
lpc=6nZKQihlEcOdVxRDB7mLwiN6FkKenu7BEXvWQBm+2T7pTxFBpMZXwX0VFD9e7kxB1sEjwdymIj/zZgxBrYq9wJhbWsDEpBS/YeG2QNNcT78N3KXAXRvZQMA1bsBRzxo/
lpc_rms=-27.38
sample=Clarinet_sustain_MF_B3.opus
</region>

<region>
hivel=127
key=B4
loop_end=272543
loop_mode=loop_continuous
loop_start=60480
loop_xfade=25696
lovel=0
lpc=EdiqQtyFeMPQYpRDSsUwwye2jkIzhi3C/ZgZQmD4kMJZmQRDib4IwwFSpUKnvfvBfYOdQNDhOEAqwffADuQfQSRCp72DpTjAquYOwI1YBcFg7oJBsvpFQV7fCsJrh59B
lpc_rms=-15.17
sample=Clarinet_sustain_MF_B4.opus
</region>

<region>
hivel=127
key=B5
loop_end=273729
loop_mode=loop_continuous
loop_start=60743
loop_xfade=25808
lovel=0
lpc=C4YiQzCcg8O7NFtDncGbwhgEkEGxlWdBiQAIwKaFiMEz24BC4PEZwrCp3kBAboVBhsahQYCVnMGMcg9BRD20QUfGS0GjehPC2pc5QkpRK8CluTrBJiFWQp+EYMK43OpA
lpc_rms=-16.17
sample=Clarinet_sustain_MF_B5.opus
</region>

<region>
hivel=127
key=C#4
loop_end=269894
loop_mode=loop_continuous
loop_start=59892
loop_xfade=25446
lovel=0
lpc=zol6QtYNJ8O7RRJD0XYnwpFHhkGRfZvBO3pvv2lXqcA124xBmlUDwc8RvD1TJQ7AhpXHQJtUlcH9haZBy3ktwCYIvL72eAbBejTfQE/gCcF1mBVBN7EzQOx7IsGBiaBA
lpc_rms=-24.24
sample=Clarinet_sustain_MF_C#4.opus
</region>

<region>
hivel=127
key=C#5
loop_end=273946
loop_mode=loop_continuous
loop_start=60791
loop_xfade=25828
lovel=0
lpc=6d9CQhUwJsNcwWtDM6Akw73AWEJh13nBI7+uQXEK48FE0SJCmsg7wmsoDEKqH3fBrNwYwVlwx0HPfAPB/LvqwIyEEsH2AXhBm69oQash9cHwLw5BIzk1QQeQBcGDEKA/
lpc_rms=-23.56
sample=Clarinet_sustain_MF_C#5.opus
</region>

<region>
hivel=127
key=C#6
loop_end=259377
loop_mode=loop_continuous
loop_start=57558
loop_xfade=24455
lovel=0
lpc=dHgdQ/iZJ8PVf6VCsR91wbXHx0GcYhpBZ0QNQnKckcHHHkRCY2T1vkKFhEExpM9BqHIuQOVj4UH4aQFB0dBxQY1aAkK6Ix/BQqITQniQR0A9xCNCy7WnwhQ6mkGmz2FC
lpc_rms=-15.23
sample=Clarinet_sustain_MF_C#6.opus
</region>

<region>
hivel=127
key=C4
loop_end=274886
loop_mode=loop_continuous
loop_start=61000
loop_xfade=25917
lovel=0
lpc=dbC7QjaliMMi+IxDdpr4wl6sBEJorYXAbQiNwQ6SQUFSKDZBxHG8wYuUrkAsDO5ApMTuv/LYw8AYhLtB5SO9wYfPbsB3KB9B3/3mQGirIsE9pM0//hY8QcF0oMGFnhpB
lpc_rms=-22.60
sample=Clarinet_sustain_MF_C4.opus
</region>

<region>
hivel=127
key=C5
loop_end=273673
loop_mode=loop_continuous
loop_start=60731
loop_xfade=25802
lovel=0
lpc=KvoDQu0D1sJPWRBDpbLJwqKaIkJsUonB+eV8QZp/nsHkkehBVQrowYu5LEHQRRxBCnCAwfLGP0BZ7mJBKsgvwbvlP8AMYzlAexQUQKUFqEB4PT3BNqnRQISXa76e97i+
lpc_rms=-21.99
sample=Clarinet_sustain_MF_C5.opus
</region>

<region>
hivel=127
key=C6
loop_end=273009
loop_mode=loop_continuous
loop_start=60583
loop_xfade=25740
lovel=0
lpc=fDrcQs9lBsOQ4K9CxvvSwdzUikFLJHnBnfQLQjjxG8KiaiZCh/ztvzHc1sH44x5COkN+v+yM4MEzQytChwHwwPOSmMGguiRCWaHgwbGFskGyr2XA7X+lQRxpgsKf68tB
lpc_rms=-20.04
sample=Clarinet_sustain_MF_C6.opus
</region>

<region>
hivel=127
key=D#3
loop_end=268321
loop_mode=loop_continuous
loop_start=59543
loop_xfade=25298
lovel=0
lpc=L+RhQoNHGMOvTAtDTrVUwsG18kGYhAvCRza2QW45qcEgwAdCotwSwtYgrEFeWF3BgzMrQc73qr7Z3yDAs932QIS1l8HzEpRBx77bwMX1a8DhNmRAock8vyLfQ0DDPxDA
lpc_rms=-26.90
sample=Clarinet_sustain_MF_D#3.opus
</region>

<region>
hivel=127
key=D#4
loop_end=272949
loop_mode=loop_continuous
loop_start=60570
loop_xfade=25734
lovel=0
lpc=eyQbQiDN18JuRt9CIA9bwtnxbUHALyNBSZflwVN6yUER2zfBzTnBv+Uh2EBVAy7ACPqvQI1JicG+kKpBAIYIweIj9MAk1e5A/z1YQGbhO8EOXytBMrtzwD2fpD/5iCC/
lpc_rms=-29.88
sample=Clarinet_sustain_MF_D#4.opus
</region>

<region>
hivel=127
key=D#5
loop_end=269486
loop_mode=loop_continuous
loop_start=59801
loop_xfade=25408
lovel=0
lpc=nOyBQnwBTMN+DoxDdNNNwyYKlkIhZ8TAg9a+QOhQtMF0UjJCVQNxwgDoTEIvn7HBSFEzP9Gv/L9yVbNAoTSoQH2VFMEo2IFAgNogQI/8MMHZTaFBy1wfwdbsKcGTMzBB
lpc_rms=-18.04
sample=Clarinet_sustain_MF_D#5.opus
</region>

<region>
hikey=d3
hivel=127
lokey=C#3
loop_end=270850
loop_mode=loop_continuous
loop_start=60104
loop_xfade=25536
lovel=0
lpc=skPPQgBQl8MIbqFD9e8owxnQj0KAmefBkNgQwb3EnUEC6QhBhvLxwd79wUB6cDdBLtHSwBxwk8D59XpBvUJ0wH3tDsFcWrVAO0f4v1UDhkAI8snAilTUwHxQikG1Kv/A
lpc_rms=-25.13
pitch_keycenter=d3
sample=Clarinet_sustain_MF_D3.opus
</region>

<region>
hivel=127
key=D4
loop_end=271536
loop_mode=loop_continuous
loop_start=60256
loop_xfade=25601
lovel=0
lpc=D1ANQmzjw8Il7cVCH+06wkUhv0GPVZDBb+a5v5vy5kA27RZAUynFwL//jUBANqa/I55pPwcwiMCnxMNAJcegwDo/GUB53/q+FuF+Py1ONL05oGPAUbKIQOD7R8C009g/
lpc_rms=-27.02
sample=Clarinet_sustain_MF_D4.opus
</region>

<region>
hivel=127
key=D5
loop_end=270553
loop_mode=loop_continuous
loop_start=60038
loop_xfade=25508
lovel=0
lpc=0l8GQsA/z8IrEwdD1LGxwuxt10HHRsfA2uodQSP9IcFqj1NBSFOMwQS1KUETQshAiWs4wQbKg8DQcYlBT7CvwKlqScF9FgdBifotQShrQMGq4A/BGyPbQSxDysE2bx5B
lpc_rms=-25.20
sample=Clarinet_sustain_MF_D5.opus
</region>

<region>
hikey=G7
hivel=127
lokey=D6
loop_end=249272
loop_mode=loop_continuous
loop_start=55316
loop_xfade=23502
lovel=0
lpc=i9VVQ/fTg8NDKMJCpKd7v7FzIkIsz2LBLQMKQtLs48GSM2hC3I8DwgmOOUIW9cHBqnUlQst0icGqY/BBoGJSQEenzUAJg2hBpaQXQPEGIkLDzhzD+8yUQv0g3EKmWYzC
lpc_rms=-13.78
pitch_keycenter=D6
sample=Clarinet_sustain_MF_D6.opus
</region>

<region>
hivel=127
key=E3
loop_end=255840
loop_mode=loop_continuous
loop_start=56773
loop_xfade=24121
lovel=0
lpc=fudUQshvE8PIABJDYPNuwuoGwEHkFP/BelOsQd2oBcGLa0JBJBuEwaiwY0Fv+PjATU8nQA1rD8FwmVhBc4aLwM5qRL+F6MI/dAqGwLNvoECWvWTBm9LLQdSOlcHXK7BA
lpc_rms=-25.74
sample=Clarinet_sustain_MF_E3.opus
</region>

<region>
hivel=127
key=e4
loop_end=270795
loop_mode=loop_continuous
loop_start=60092
loop_xfade=25531
lovel=0
lpc=GEuqQivBW8MDLEBDnvF/wqBDtkHav5HBNGOswKAiukCdQAxBxMgvwYZvtkAfj6BAmph0wCaySsGNG/tAS4P0QLkhrsByYdq/oC2DQDsCm8Bm+Q9AsRNNQVBc08H3dmpB
lpc_rms=-20.38
sample=Clarinet_sustain_MF_E4.opus
</region>

<region>
hivel=127
key=E5
loop_end=274948
loop_mode=loop_continuous
loop_start=61014
loop_xfade=25923
lovel=0
lpc=uJypQusNfsOhY6RDWrxbw78vdUIqFb5BKpP+weKREEHc5dBBFMNKwtXCOkJdbDjBoVvjwZOMFEIyaU3ANJuVwQ9Yo8CSKApCqnxpwYQgz8H3oPhBTX4HQQDME8LWqrVB
lpc_rms=-16.50
offset=12543
sample=Clarinet_sustain_MF_E5.opus
</region>

<region>
hivel=127
key=F#3
loop_end=271676
loop_mode=loop_continuous
loop_start=60287
loop_xfade=25614
lovel=0
lpc=VO+IQp1tMsNceR1D6Vs2wtgoj0DQIH3BhFE6Qd4H4MAMno1B/x1kwYAPwz5hpq7A4a0wQVdjZsEPUWBByGdWQGtx0MBYhEbB9iJlQQZm2L4tZoG/YdbcwEvW6EAArsy/
lpc_rms=-22.39
offset=2428
sample=Clarinet_sustain_MF_F#3.opus
</region>

<region>
hivel=127
key=F#4
loop_end=270055
loop_mode=loop_continuous
loop_start=59928
loop_xfade=25461
lovel=0
lpc=FAVGQpkqA8PIRPlClNlVwpjbAkLPAwjCRUoQv0EH0UGUaWfBxhyfP7PrwD9ndZHAsAoCQQk3/MBMPpo/smzHP7liPEDixYjAnzaRQBECRcEh33BBhwwAQI/DhsHUmBxB
lpc_rms=-20.48
sample=Clarinet_sustain_MF_F#4.opus
</region>

<region>
hivel=127
key=F#5
loop_end=278199
loop_mode=loop_continuous
loop_start=61735
loop_xfade=26229
lovel=0
lpc=RCTZQhiDeMPi3WlDxpCiwpvkMcDexRxBriWRvtpXJMEVQwhCl3ARwhprB0IBF+bAF91hwRoqMUBq2YlBUWyFQWCWD8KPl7dB6GyuwGn28MB+guJBN3c9QVNjc8LsNjpC
lpc_rms=-15.96
offset=12078
sample=Clarinet_sustain_MF_F#5.opus
</region>

<region>
hivel=127
key=F3
loop_end=270644
loop_mode=loop_continuous
loop_start=60058
loop_xfade=25517
lovel=0
lpc=J37YQe/giMJoIVlCsVEjwbKHnUDK7hLB4+H/Pkq5VcDIuvpAil4CwCTdqj3/7wDAuY/WP07L18BmrBdBRa+/v4AO7b8aLzu/jIqjPgsJzr/QKuA/4BSvvqxC3D+LS7O/
lpc_rms=-28.87
sample=Clarinet_sustain_MF_F3.opus
</region>

<region>
hivel=127
key=F4
loop_end=269201
loop_mode=loop_continuous
loop_start=59738
loop_xfade=25381
lovel=0
lpc=JqUZQhVh28KLmN5C5jcwwk7eMUFoqgvBIrtFwKZXoEA8vYVAmbyLwMqzcj/YycC9tWGnvzuILcCCtN1A8XEiwMVlMT+6POy/d/8AwH5roz/Blw+/H6gzQePtd8HyTMJA
lpc_rms=-27.06
sample=Clarinet_sustain_MF_F4.opus
</region>

<region>
hivel=127
key=F5
loop_end=266618
loop_mode=loop_continuous
loop_start=59165
loop_xfade=25137
lovel=0
lpc=5Dw2QxFj9MMqTgpEGw+cwyRer0K9YBtCQIq2wuEm7EHM2ItCep+CwnZn5kHLNbs/3XUGwrnMBkJ709vA5tP4QZA7JsIUvqdBxBshwWtZbUD9MJrAjg2vQvywDMOUv5lC
lpc_rms=-16.23
sample=Clarinet_sustain_MF_F5.opus
</region>

<region>
hivel=127
key=G#3
loop_end=264738
loop_mode=loop_continuous
loop_start=58748
loop_xfade=24960
lovel=0
lpc=qB1/Ql7lPcN8+VBDCD3ewnr3LkJKzUXB9gRCwZFqKEFau99AZ32xwc7JoEEvzpk+nP8vwa4acMCHBYBB60IPwaEfMb+DHmtAIM+BQFNTXsF3LVhBTfAAwY3jJUBvnW89
lpc_rms=-25.41
sample=Clarinet_sustain_MF_G#3.opus
</region>

<region>
hivel=127
key=G#4
loop_end=272251
loop_mode=loop_continuous
loop_start=60415
loop_xfade=25668
lovel=0
lpc=XynvQnfQpMMKq6dDaJMHw0TH00GAkcPBIdUxwLl0YkGPFUlBHTFywSTf7r+9O4FBwk70wUpis0EYh52/TXNHwKQOFEG15I/BXJBQQRXuPMETrwNBcos9QRhxwMEEhWdB
lpc_rms=-19.43
sample=Clarinet_sustain_MF_G#4.opus
</region>

<region>
hivel=127
key=G#5
loop_end=255935
loop_mode=loop_continuous
loop_start=56794
loop_xfade=24130
lovel=0
lpc=oCwBQ4fakMOya6hDm45EwyB/JULVqSRCY2NBwXpay8Fiq3tC0qpBwq4LOEEA4F9CV8mJwl2vTUJ1qEzAhIKMv0XgrcDbYQdC+neKwVoAicGYZoRC/VpAwt/xZEGbPJpB
lpc_rms=-20.28
sample=Clarinet_sustain_MF_G#5.opus
</region>

<region>
hivel=127
key=G3
loop_end=269019
loop_mode=loop_continuous
loop_start=59698
loop_xfade=25364
lovel=0
lpc=4hW2Qol5a8Nu+zlDJP8IwqVsY0EXHsvBR/KTPcVzIcDBZ2xB9hkwwVp9ND+/aTJAH363wF2yrz8KZOxAL/muQOTZCsFNjxLBb3WOQPEwhECLzglARhX9QJAQjsGPb/lA
lpc_rms=-23.02
sample=Clarinet_sustain_MF_G3.opus
</region>

<region>
hivel=127
key=G4
loop_end=273339
loop_mode=loop_continuous
loop_start=60657
loop_xfade=25771
lovel=0
lpc=mG+1QvTcasPKwVhDNsGKwvBrpUCuYXTBH9KewDqu00H+UpPAIytuwRbTgUAPLys/WbHyQI13/L+C8gbBkOB8v8DoQ0GzAUDAIfiJv7SMIcGDSwFB3d4uQbJ4ycHNu4FB
lpc_rms=-20.28
sample=Clarinet_sustain_MF_G4.opus
</region>

<region>
hivel=127
key=g5
loop_end=271066
loop_mode=loop_continuous
loop_start=60152
loop_xfade=25557
lovel=0
lpc=xr3fQm/qgsP5h5RDw9cow0KWK0ILVOpAg+/HQQiXjMKFRudC2V/jwkbJokJOzK3BcHe4wEYim0ETIMfBb6dnQq/QisL1yFFCKUgCv+HhesGjbqnAPkt7Qr/qn8I6WEtC
lpc_rms=-17.11
offset=4082
sample=Clarinet_sustain_MF_G5.opus
</region>
</group>

<group>
group_label=FF
lpc_hicc1=127
lpc_locc1=85

<region>
hivel=127
key=A#3
loop_end=272737
loop_mode=loop_continuous
loop_start=60523
loop_xfade=25714
lovel=0
lpc=jQzRQRk0mMLwfqRChWkEwuiJ1b+ajDS++4awP7T0/UDGx43ALsG8wOTAqj7HBEZB5ng/wb5TBECuxGO+yaPhQKGZAsGfqXJAfdLVvkA48L8gMwk/0s8dQJEd9b9dnLQ+
lpc_rms=-24.20
sample=Clarinet_sustain_FF_A#3.opus
</region>

<region>
hivel=127
key=A#4
loop_end=276060
loop_mode=loop_continuous
loop_start=61260
loop_xfade=26027
lovel=0
lpc=VLvjQZvrpsIqObhCBoMYwgcoRr+hP3o/EA1iQJ+/WsHHaMlBMvOFwY1qAEE1TBTB1KOAwGrtf0EWrKHAp7W0P16LTsHFbvxAzarhQFjhksAdhC7A9Wn9P9/Jsb9W08w/
lpc_rms=-20.80
sample=Clarinet_sustain_FF_A#4.opus
</region>

<region>
hivel=127
key=A#5
loop_end=276011
loop_mode=loop_continuous
loop_start=61250
loop_xfade=26023
lovel=0
lpc=Kw5rQlGyGsIIBMVBlH1rQar5KEEdjKNAFJx0QQrukb/zkbZBaysbQcvlA0FtwDQ/JYmOQcl2j0FpLnk95lnNQI7PhkE+lFpBUeYQQXWpcD9CGqZBT4YCwOGk2kFrVglA
lpc_rms=-13.81
sample=Clarinet_sustain_FF_A#5.opus
</region>

<region>
hivel=127
key=A3
loop_end=267156
loop_mode=loop_continuous
loop_start=59284
loop_xfade=25188
lovel=0
lpc=OqsoQsIC/8I3ARFDHN+Gwk/sH0Az2ttA8KjdPx2zIMCdQsy/KfKZP8Iw+L9ZPfJAfaqfwKW9fMB+FVBAv9XHP9w8FsBbH9U/Lh2/QIIkE8GHjPm/ABNmQNQInUBNa3XA
lpc_rms=-23.04
sample=Clarinet_sustain_FF_A3.opus
</region>

<region>
hivel=127
key=A4
loop_end=273873
loop_mode=loop_continuous
loop_start=60775
loop_xfade=25821
lovel=0
lpc=vOQxQr+58MJlF/tCFNhbwhF6P8A3V+lAXrKsQQduKsL25jpCQcsawhAImEHhJjzAmkaiwCbRtUCE4sq/dVGPQBO+RcEbQmxBKwwlweftxUBlkHHA5zbcQCziQsF66PJA
lpc_rms=-15.47
sample=Clarinet_sustain_FF_A4.opus
</region>

<region>
hivel=127
key=A5
loop_end=267175
loop_mode=loop_continuous
loop_start=59289
loop_xfade=25190
lovel=0
lpc=WipdQh+eYcJTLBFCchoVQYQzrsCIDolBH2IDQJTBqL+hDH1BsqC6QJik4kA4v54/Dhf5P+7qkkEjR/pA6U8EwfxhYkEPc9hARfEOQWCORUAeKuNATiNRQM3JwkBEZolB
lpc_rms=-12.30
sample=Clarinet_sustain_FF_A5.opus
</region>

<region>
hivel=127
key=B3
loop_end=271464
loop_mode=loop_continuous
loop_start=60240
loop_xfade=25594
lovel=0
lpc=GVYuQoET8cI8NeZCGvk5wtkd20EU2PLBxKkmQbNQOEA8m80+7t2MwPvM0L8jewZBRjhnwDzX7cCYLtJAnQnAQIgLZcCMEhDAJPLCwJ6SkT9yIANBAmIKPy5rssA2T8w/
lpc_rms=-22.44
sample=Clarinet_sustain_FF_B3.opus
</region>

<region>
hivel=127
key=B4
loop_end=272686
loop_mode=loop_continuous
loop_start=60512
loop_xfade=25709
lovel=0
lpc=scjkQUAfm8K/zKZC11ohwkn04kBaBpG/26L/QG/btsEeMuxBN16EwbV60UCBaCnBa4xIQeV9FsHz5bJAhZ8Lv67yjT/KeR7Bnp16QcZwFMHAs6C/lSEKQWXhF8Fyz5dA
lpc_rms=-17.12
sample=Clarinet_sustain_FF_B4.opus
</region>

<region>
hivel=127
key=B5
loop_end=271836
loop_mode=loop_continuous
loop_start=60323
loop_xfade=25629
lovel=0
lpc=6B76QtAYAcMSDKpCVKqawXV9R0FPYELB32cvQl+C+sEG2JRA3BosQnBiBcKj2cNB4J26vxZrikHAf7zBgcU8QqSfmMFPqjbBUogyQpNRi8GPaYVAuygUQSvv4kFQx2fC
lpc_rms=-11.48
sample=Clarinet_sustain_FF_B5.opus
</region>

<region>
hivel=127
key=C#4
loop_end=273054
loop_mode=loop_continuous
loop_start=60593
loop_xfade=25744
lovel=0
lpc=xLFtQo15PsMX6GVDMWLtwud6s0GNxkzB4yyDQbdWLcHMn4NBvK6CwdgJEkBlYek/38iGQJNHfcAS+jY/Ta1rwOnJFUCRMGZBlTRcwcRYacHNnGZBzeSDQdQStcHxjNpA
lpc_rms=-16.77
sample=Clarinet_sustain_FF_C#4.opus
</region>

<region>
hivel=127
key=C#5
loop_end=272105
loop_mode=loop_continuous
loop_start=60383
loop_xfade=25654
lovel=0
lpc=bMRjQQvsDsJcexJCRbd9wb+OqT+WoTXAKjnhQM44DcGpPSxBSQEZwU4JlUCkx4W/7dbnP9gRf8A8dG1AQfwoP8SY88CejxFBf3DZv7JZbMB3JhxAcL1oP4bthr735C2/
lpc_rms=-21.28
sample=Clarinet_sustain_FF_C#5.opus
</region>

<region>
hivel=127
key=C#6
loop_end=267260
loop_mode=loop_continuous
loop_start=59307
loop_xfade=25198
lovel=0
lpc=NoNHQirE+8Hi0HJBp6BxQb7aJEErXlJBM+qHQXhRH0EeZmlB33R2QSQrOkFrtC9B9vSgQWtQAkG7OXBB491RQRDMf0Ev9flAgD6sQSTDp0AGcLJBMk8vwf8tyMCMReVB
lpc_rms=-13.80
sample=Clarinet_sustain_FF_C#6.opus
</region>

<region>
hivel=127
key=C4
loop_end=271982
loop_mode=loop_continuous
loop_start=60355
loop_xfade=25643
lovel=0
lpc=NvgdQmQK6sJOIwJDEBqBwiKfZkG1xp6/8rJSP2vQI8GgsXBBW5TUwPgwgUDT0xzB5cryQAhLfsAjpiZAoHxawEca7kCSZmC/V4otwNlREcG6kglB9ciQQExI38B97A9A
lpc_rms=-23.73
sample=Clarinet_sustain_FF_C4.opus
</region>

<region>
hivel=127
key=C5
loop_end=269937
loop_mode=loop_continuous
loop_start=59902
loop_xfade=25450
lovel=0
lpc=RCSEQeEbHsIEKSVCiCy8wQKKIkFrYAvB1ZQ6QQpAhMEiYZRBkK4ewe8U8L8D2aJAVceivqO/csCmyP4/Lg4uQL/opMCVdpo+9jPhQNRQtcBIfyFA+uJdwIB3mkBpuN+/
lpc_rms=-20.43
sample=Clarinet_sustain_FF_C5.opus
</region>

<region>
hivel=127
key=C6
loop_end=267831
loop_mode=loop_continuous
loop_start=59434
loop_xfade=25252
lovel=0
lpc=bTBzQnN9McIEZyRCJ+Khwekn5UGPoIbBbz/GQfibVsG1NqNBnuc6wD3PuECLNfxAGNiTQG4TH0A7yLlAp9UzQSLQ/cAvWbhBPLxzwRvY2UFZXJfB9wICQpucBMJs6qTA
lpc_rms=-16.58
sample=Clarinet_sustain_FF_C6.opus
</region>

<region>
hivel=127
key=D#3
loop_end=274992
loop_mode=loop_continuous
loop_start=61023
loop_xfade=25927
lovel=0
lpc=BIzpQWzNocJ3HaZCVrAXwvRchkFz4snBCYrDQXvRkcG4sr9BuyrGwX3uV0GT8rDA9E4lQBLLmL+AHaO+qQKgQFDPtMBUaa+/L0KSQOO8cL66wC3An7hjPC2Czz9Ge3O+
lpc_rms=-23.24
sample=Clarinet_sustain_FF_D#3.opus
</region>

<region>
hivel=127
key=D#4
loop_end=273823
loop_mode=loop_continuous
loop_start=60764
loop_xfade=25816
lovel=0
lpc=JbdYQnNKL8PcCldDwOLfwuOrukAppPNB2PkfwijYKEIxzQHC7kadQTX0Q8HITfw/LlNAQW7qisGP7FxBMqlZwURMj0HqrDvBsgPlQFqxtsFTx41Bmk+/QedXG8JKw21B
lpc_rms=-18.19
sample=Clarinet_sustain_FF_D#4.opus
</region>

<region>
hivel=127
key=D#5
loop_end=275134
loop_mode=loop_continuous
loop_start=61055
loop_xfade=25940
lovel=0
lpc=0vqDQYiYFMIzxvhB/DcHwcYWJT0FDIfAGlmdQIX0WcCDW9VArv5QwLCltcAZ6wVBOy1bv/XYEsHU/eNAyCofQHkhob9fHR7ACg+Hv3r4mEBUht+/x81UQMYYFsH8vMtA
lpc_rms=-19.47
sample=Clarinet_sustain_FF_D#5.opus
</region>

<region>
hikey=D3
hivel=127
lokey=C#3
loop_end=271033
loop_mode=loop_continuous
loop_start=60145
loop_xfade=25553
lovel=0
lpc=iIgsQkeKB8PDqSZDW4DKwoDhEEJdTznBziGbP+F4kL8S4k1BdFKfwbWS/EBlnANBJ7vnwBoK/7++zhlARf2bQISFAcH1yIC+i68SQd1nLMBpDfjApYbtQA+3QMB4K0w/
lpc_rms=-25.15
pan=20
pitch_keycenter=D3
sample=Clarinet_sustain_FF_D3.opus
</region>

<region>
hivel=127
key=D4
loop_end=271367
loop_mode=loop_continuous
loop_start=60219
loop_xfade=25585
lovel=0
lpc=xkGHQpKKMMNHUyNDq6pwwlEVmUGKZJbBD0iFv6zUnkD0E1NBoB05wcdjhcCDvKhAbcmmwMHowkDC6pjA2TxNvogJH0Hj5RHBh+oyQe25v8EAy6xBjhguwX/yGUFFyI/A
lpc_rms=-15.31
sample=Clarinet_sustain_FF_D4.opus
</region>

<region>
hivel=127
key=D5
loop_end=273557
loop_mode=loop_continuous
loop_start=60705
loop_xfade=25791
lovel=0
lpc=4xz2QeGzi8KtI55CveNnwgapGEITIerBeuitQcKpVcGKqbZAGHYNwElHXz808ZNACKhHwfT2dEG0zkHBHOx0QOubDT46nQxBmsUVwRRhj8ABq6RBtHCewYRSbUETIcTA
lpc_rms=-15.82
sample=Clarinet_sustain_FF_D5.opus
</region>

<region>
hikey=G7
hivel=127
lokey=D6
loop_end=261236
loop_mode=loop_continuous
loop_start=57971
loop_xfade=24630
lovel=0
lpc=M034QkaSv8KW4H5AShwPQk6bH0HnqAxBTYeaQczdVEDm4KJBDpKgQIDOjkEF9wVByb9eQQIXREEwfCZBHcNwQUXzy0C4GbhB3Ja8wJozMUK+4LXC2akOQUsMr0J4JRnC
lpc_rms=-10.03
pitch_keycenter=D6
sample=Clarinet_sustain_FF_D6.opus
</region>

<region>
hivel=127
key=E3
loop_end=272984
loop_mode=loop_continuous
loop_start=60578
loop_xfade=25737
lovel=0
lpc=PEHuQX8ssMIre8dCzVZRwhejiEEsfkbB1NUoQStbKMG/d5RBaNOewUoEI0FfY0W/+6GBwMomksByjoNB1U/pwGe+TMA+jrLAa9LyQDD+lUBGXQLBzNlbQAMZAsBu664/
lpc_rms=-21.92
sample=Clarinet_sustain_FF_E3.opus
</region>

<region>
hivel=127
key=E4
loop_end=272459
loop_mode=loop_continuous
loop_start=60461
loop_xfade=25688
lovel=0
lpc=ehzrQdevqMJ/tK9CQgwCwhrMk8CHfbBA0itBwOBkej/w//5ABSkcwQdyO0AQfW3AAyVyQP3UvT+xU/0+hHVEwGlRS8B5pQBBSt8twESqDMAce0DAv2YOQf4x38AXww5A
lpc_rms=-22.35
sample=Clarinet_sustain_FF_E4.opus
</region>

<region>
hivel=127
key=E5
loop_end=278531
loop_mode=loop_continuous
loop_start=61809
loop_xfade=26260
lovel=0
lpc=L3jkQRDJccKEYjxCFJyAwUoqoUD3Q7S/Nt+zQCuSWsExqilBFsd9QHepusClSVvAEOC4QBa/z8AQplpBxmJGwQPyJkFf3k/BXKYLQcY0Bj/vlZ5AYD4RwYQg57+O9dVA
lpc_rms=-17.11
offset=13401
sample=Clarinet_sustain_FF_E5.opus
</region>

<region>
hivel=127
key=F#3
loop_end=273710
loop_mode=loop_continuous
loop_start=60739
loop_xfade=25806
lovel=0
lpc=udUOQqlq4cL4YQ9DuEGuwhJev0Fqeh3BClMaQTdbGcCE8rtAGY5gwf5iKkG3Goy/uFZdv9YbmcCdqQfATANZQX7sM8CmWzzBNSWqQL2y0kCKWz/BvguPQSgzlMEz8/dA
lpc_rms=-24.88
sample=Clarinet_sustain_FF_F#3.opus
</region>

<region>
hivel=127
key=F#4
loop_end=271584
loop_mode=loop_continuous
loop_start=60267
loop_xfade=25605
lovel=0
lpc=SYaxQYLocsK/lnpClku0wVdGmMB1zN+9a/ZqQP11H0BT5tw/2+gswX7kD0GyqhXAEt5rQItsJsG/LyVBT07JwDJC50AUHRDBdx7VQHzkiMB25StAwQirvTmiKr8zMdk+
lpc_rms=-23.17
sample=Clarinet_sustain_FF_F#4.opus
</region>

<region>
hivel=127
key=F#5
loop_end=283719
loop_mode=loop_continuous
loop_start=62960
loop_xfade=26750
lovel=0
lpc=idvbQcjUcMLpLoFCrzMewpLVekEBxgHBhUBfQQj1jsEk47BBcslmwXf9AUApK/xATCUYwdiPVUBuo7lAfyxPwK/arL4V9stAno3YwLab6D+Pj5k/PfJJQH15osBSybVA
lpc_rms=-17.29
offset=13954
sample=Clarinet_sustain_FF_F#5.opus
</region>

<region>
hivel=127
key=F3
loop_end=275047
loop_mode=loop_continuous
loop_start=61035
loop_xfade=25932
lovel=0
lpc=agvdQQ94mMK62ZFCWYG5wbqpqEDXPWvBFOsgQVTCbMDfzxRBr7kWwYs3+j88hzDA8LX7QFceNcETxVxBor8ZwXal2T9K/YVAS0XdwIdju0BqBZ7AFO1SQFNw0j4E0KK/
lpc_rms=-25.97
sample=Clarinet_sustain_FF_F3.opus
</region>

<region>
hivel=127
key=F4
loop_end=270667
loop_mode=loop_continuous
loop_start=60064
loop_xfade=25519
lovel=0
lpc=d8ZKQsEsCMMQAPlCJbMDwlg8WkA8zJTB5zM7wB7/lUEaNsA/7hAYwTtJeUBy4zzAcGLIv+MT8L/H9X5ARPEjQW5KCMGrLb/ARGtbP+ZqqT8rChpBLEKOP7atp8E8E1ZB
lpc_rms=-20.24
sample=Clarinet_sustain_FF_F4.opus
</region>

<region>
hivel=127
key=F5
loop_end=271514
loop_mode=loop_continuous
loop_start=60252
loop_xfade=25599
lovel=0
lpc=t2nPQVCxWMKXqkVCaC3DwQWasUBs86c83aepQJvvscCQUNRA0+i6wOvVkT8qmtE/tfLMQIZ9mMFECJxB4FubwIbebsAYWyRB0YsXwfGGZkDAQfm/asHNPx/Yq74d5CxA
lpc_rms=-15.12
sample=Clarinet_sustain_FF_F5.opus
</region>

<region>
hivel=127
key=G#3
loop_end=265072
loop_mode=loop_continuous
loop_start=58822
loop_xfade=24991
lovel=0
lpc=vyZPQigkNsMI8IVDOfFOwxWppULodCjBgZFAwWgr3UGyBLrBAVZEwVO1CELzRHLB7YodwbRQokADg/lAR3D/wGcR/0C1OTi/iXJWwenrMEEmXpq/kK3lP/9ZncCNiidA
lpc_rms=-23.35
sample=Clarinet_sustain_FF_G#3.opus
</region>

<region>
hivel=127
key=G#4
loop_end=272202
loop_mode=loop_continuous
loop_start=60404
loop_xfade=25664
lovel=0
lpc=BRYNQrlps8KtuKZCwmLAwTsd+7/YrF7B8C2fQd4PI8FBUSNASQolv+vQCUFEfGvB+h2IQKnk9UALgd7AQXomQD9pd8AlNMdAozd6voZMH8GxVMRAzxRLQWJmsMFwFTlB
lpc_rms=-20.11
sample=Clarinet_sustain_FF_G#4.opus
</region>

<region>
hivel=127
key=G#5
loop_end=264318
loop_mode=loop_continuous
loop_start=58655
loop_xfade=24920
lovel=0
lpc=eMkOQ8tPbcO80GJDTRD+wrr+c0Kzna4+NlUeQomclsJJx6RCt+K5wR80jEC7aAVCKnLLwXkOzkHKJqhAaNbxQLBlWMGRRQZC1vI+QWUGhsEe7uZBvf2kwcCtvkGUy6ZB
lpc_rms=-7.70
sample=Clarinet_sustain_FF_G#5.opus
volume=-3
</region>

<region>
hivel=127
key=G3
loop_end=274089
loop_mode=loop_continuous
loop_start=60823
loop_xfade=25842
lovel=0
lpc=vOX4QSBzscJ9c7pCxEEnwjvQI0H2LxDBJa+hQOueuT82GVhAfurTwEiXMr6s2Nc/nP44QHUYjMC5mUM9AWoMQP8x8z/PEhzAiq85QFFfp8CcKlFAnYd6wG3usEBiORPA
lpc_rms=-23.79
sample=Clarinet_sustain_FF_G3.opus
</region>

<region>
hivel=127
key=G4
loop_end=274096
loop_mode=loop_continuous
loop_start=60825
loop_xfade=25842
lovel=0
lpc=uOqPQtsrTsNj+VFDECCFwtTkOsF3SLzAs1auvg6pg0GwLW5A4YorwQ7nrcCfUHlAFjOeQOAsj8BE8oe/YMeRQBNsQ0AY+8rA033bP2A5gsGMINtBE+1RQLAA/MFiz45B
lpc_rms=-17.26
sample=Clarinet_sustain_FF_G4.opus
</region>

<region>
hivel=127
key=G5
loop_end=271665
loop_mode=loop_continuous
loop_start=60285
loop_xfade=25613
lovel=0
lpc=ffsKQtyobcLFQTJC8VFNwTP78kDaUgPBiWiNQYwGwMHaHLhBM8rRwA82GL+CkbxAk20swI+KYEDGzKrATtqdQSpdvMEvtIhBcAB4wFGmjUCJwrS/2j/pQE+ybsFs73pB
lpc_rms=-18.36
sample=Clarinet_sustain_FF_G5.opus
</region>
</group>